<svg xmlns="http://www.w3.org/2000/svg" xmlns:xlink="http://www.w3.org/1999/xlink" width="412" zoomAndPan="magnify" viewBox="0 0 309 308.999992" height="412" preserveAspectRatio="xMidYMid meet" version="1.0"><defs><clipPath id="2b8458d9ce"><path d="M 154.5 0 C 69.171875 0 0 69.171875 0 154.5 C 0 239.828125 69.171875 309 154.5 309 C 239.828125 309 309 239.828125 309 154.5 C 309 69.171875 239.828125 0 154.5 0 Z M 154.5 0 " clip-rule="nonzero"/></clipPath><clipPath id="77336b0f02"><path d="M 69.199219 146 L 276.199219 146 L 276.199219 248.894531 L 69.199219 248.894531 Z M 69.199219 146 " clip-rule="nonzero"/></clipPath><clipPath id="bfe914ace0"><path d="M 69.199219 59.894531 L 258 59.894531 L 258 159 L 69.199219 159 Z M 69.199219 59.894531 " clip-rule="nonzero"/></clipPath></defs><g clip-path="url(#2b8458d9ce)"><rect x="-30.9" width="370.8" fill="#000000" y="-30.899999" height="370.79999" fill-opacity="1"/></g><g clip-path="url(#77336b0f02)"><path fill="#c8f31d" d="M 258.394531 151.738281 C 258.417969 152.65625 258.433594 153.574219 258.433594 154.5 C 258.433594 180.535156 247.796875 204.191406 230.65625 221.328125 C 213.519531 238.464844 189.863281 249.105469 163.828125 249.105469 L 69.222656 249.105469 L 69.222656 201.882812 C 118.953125 156.40625 197.316406 136.273438 276.523438 151.527344 C 270.4375 151.390625 264.390625 151.46875 258.394531 151.738281 Z M 113.039062 209.292969 L 163.828125 209.292969 C 178.875 209.292969 192.570312 203.121094 202.507812 193.179688 C 211.988281 183.703125 218.035156 170.8125 218.582031 156.589844 C 177.4375 164.902344 140.578125 183.070312 113.039062 209.292969 Z M 113.039062 209.292969 " fill-opacity="1" fill-rule="nonzero"/></g><g clip-path="url(#bfe914ace0)"><path fill="#ffffff" d="M 89.128906 59.894531 L 163.828125 59.894531 C 189.863281 59.894531 213.519531 70.53125 230.65625 87.667969 C 244.742188 101.753906 254.433594 120.238281 257.441406 140.832031 C 243.648438 137.886719 229.328125 135.777344 214.832031 134.554688 C 212.039062 127.484375 207.808594 121.117188 202.507812 115.816406 C 192.570312 105.875 178.875 99.707031 163.828125 99.707031 L 109.035156 99.707031 L 109.035156 131.707031 C 132.3125 129.730469 156.769531 130.238281 181.546875 133.777344 C 140.605469 135.0625 101.515625 143.453125 69.222656 158.808594 L 69.222656 59.894531 Z M 89.128906 59.894531 " fill-opacity="1" fill-rule="nonzero"/></g></svg>