<svg xmlns="http://www.w3.org/2000/svg" xmlns:xlink="http://www.w3.org/1999/xlink" width="128" zoomAndPan="magnify" viewBox="0 0 96 95.999999" height="128" preserveAspectRatio="xMidYMid meet" version="1.2"><defs><clipPath id="590cf70259"><path d="M 55.375 33.601562 L 62.398438 33.601562 L 62.398438 53.199219 L 55.375 53.199219 Z M 55.375 33.601562 "/></clipPath></defs><g id="f42ae5e441"><path style=" stroke:none;fill-rule:nonzero;fill:#673de5;fill-opacity:1;" d="M 96.039062 48 C 96.035156 50.097656 95.894531 52.1875 95.617188 54.265625 C 95.339844 56.34375 94.925781 58.394531 94.382812 60.421875 C 93.835938 62.445312 93.160156 64.425781 92.355469 66.363281 C 91.550781 68.300781 90.625 70.175781 89.574219 71.992188 C 88.523438 73.808594 87.359375 75.546875 86.082031 77.210938 C 84.804688 78.875 83.421875 80.449219 81.941406 81.929688 C 80.457031 83.414062 78.882812 84.792969 77.21875 86.070312 C 75.554688 87.347656 73.816406 88.511719 72 89.5625 C 68.359375 91.691406 64.503906 93.304688 60.433594 94.40625 C 56.363281 95.503906 52.21875 96.046875 48 96.039062 C 46.414062 96.042969 44.847656 95.894531 43.292969 95.585938 C 41.738281 95.28125 40.226562 94.824219 38.765625 94.21875 C 37.300781 93.613281 35.910156 92.867188 34.59375 91.984375 C 33.277344 91.101562 32.0625 90.101562 30.945312 88.976562 C 30.203125 88.222656 29.511719 87.425781 28.871094 86.582031 C 28.230469 85.742188 27.648438 84.859375 27.125 83.941406 C 26.597656 83.023438 26.136719 82.074219 25.734375 81.097656 C 25.332031 80.117188 24.996094 79.117188 24.726562 78.09375 C 24.453125 77.070312 24.25 76.035156 24.117188 74.988281 C 23.980469 73.9375 23.914062 72.882812 23.914062 71.828125 C 23.914062 70.769531 23.984375 69.714844 24.125 68.667969 C 24.261719 67.617188 24.46875 66.582031 24.742188 65.5625 C 25.285156 63.519531 26.082031 61.585938 27.144531 59.757812 C 28.203125 57.929688 29.484375 56.273438 30.984375 54.789062 L 43.355469 42.417969 L 43.355469 59.863281 C 43.355469 60.167969 43.386719 60.46875 43.445312 60.769531 C 43.503906 61.070312 43.59375 61.359375 43.710938 61.640625 C 43.828125 61.921875 43.96875 62.191406 44.140625 62.445312 C 44.308594 62.695312 44.5 62.929688 44.714844 63.148438 C 44.933594 63.363281 45.167969 63.554688 45.421875 63.726562 C 45.671875 63.894531 45.941406 64.039062 46.222656 64.152344 C 46.503906 64.269531 46.796875 64.359375 47.09375 64.417969 C 47.394531 64.476562 47.695312 64.507812 48 64.507812 C 48.304688 64.507812 48.605469 64.476562 48.90625 64.417969 C 49.203125 64.359375 49.496094 64.269531 49.777344 64.152344 C 50.058594 64.039062 50.328125 63.894531 50.578125 63.726562 C 50.832031 63.554688 51.066406 63.363281 51.285156 63.148438 C 51.5 62.929688 51.691406 62.695312 51.859375 62.445312 C 52.03125 62.191406 52.171875 61.921875 52.289062 61.640625 C 52.40625 61.359375 52.496094 61.070312 52.554688 60.769531 C 52.613281 60.46875 52.644531 60.167969 52.644531 59.863281 L 52.644531 31.335938 C 52.648438 30.792969 52.542969 30.273438 52.332031 29.777344 C 52.351562 29.710938 52.351562 29.644531 52.332031 29.582031 C 52.164062 29.148438 51.933594 28.75 51.644531 28.390625 C 51.355469 28.027344 51.019531 27.714844 50.636719 27.453125 C 50.253906 27.191406 49.839844 26.992188 49.398438 26.859375 C 48.957031 26.722656 48.503906 26.652344 48.039062 26.652344 L 19.316406 26.652344 C 18.992188 26.625 18.667969 26.628906 18.347656 26.664062 C 18.023438 26.703125 17.707031 26.773438 17.398438 26.878906 C 17.089844 26.980469 16.796875 27.117188 16.515625 27.28125 C 16.234375 27.445312 15.972656 27.636719 15.734375 27.859375 C 15.492188 28.078125 15.277344 28.320312 15.085938 28.582031 C 14.898438 28.847656 14.738281 29.128906 14.605469 29.425781 C 14.472656 29.722656 14.375 30.03125 14.308594 30.351562 C 14.242188 30.667969 14.207031 30.992188 14.207031 31.316406 C 14.207031 31.640625 14.242188 31.964844 14.308594 32.28125 C 14.375 32.601562 14.472656 32.910156 14.605469 33.207031 C 14.738281 33.503906 14.898438 33.785156 15.085938 34.050781 C 15.277344 34.316406 15.492188 34.558594 15.734375 34.777344 C 15.972656 34.996094 16.234375 35.1875 16.515625 35.351562 C 16.796875 35.519531 17.089844 35.652344 17.398438 35.757812 C 17.707031 35.859375 18.023438 35.929688 18.347656 35.96875 C 18.667969 36.007812 18.992188 36.011719 19.316406 35.980469 L 36.761719 35.980469 L 24.585938 48.3125 C 22.484375 50.375 20.695312 52.679688 19.226562 55.230469 C 17.753906 57.78125 16.652344 60.484375 15.921875 63.335938 C 15.546875 64.746094 15.265625 66.171875 15.078125 67.621094 C 14.890625 69.066406 14.796875 70.515625 14.796875 71.976562 C 14.800781 73.433594 14.898438 74.886719 15.089844 76.332031 C 15.28125 77.777344 15.566406 79.203125 15.945312 80.613281 C 16.324219 82.019531 16.792969 83.398438 17.351562 84.746094 C 17.910156 86.089844 18.554688 87.394531 19.28125 88.660156 C 20.011719 89.921875 20.820312 91.132812 21.707031 92.289062 C 22.59375 93.445312 23.554688 94.539062 24.585938 95.570312 C 24.746094 95.734375 24.914062 95.890625 25.09375 96.039062 C 24.277344 96.039062 23.460938 96 22.648438 95.917969 C 21.835938 95.839844 21.027344 95.71875 20.226562 95.558594 C 19.425781 95.402344 18.636719 95.203125 17.855469 94.964844 C 17.074219 94.726562 16.304688 94.453125 15.550781 94.140625 C 14.796875 93.828125 14.058594 93.480469 13.335938 93.09375 C 12.617188 92.710938 11.917969 92.289062 11.238281 91.835938 C 10.558594 91.382812 9.90625 90.898438 9.273438 90.378906 C 8.640625 89.859375 8.039062 89.3125 7.460938 88.734375 C 6.882812 88.15625 6.335938 87.554688 5.816406 86.921875 C 5.296875 86.289062 4.8125 85.636719 4.359375 84.957031 C 3.90625 84.277344 3.484375 83.578125 3.101562 82.859375 C 2.714844 82.136719 2.367188 81.398438 2.054688 80.644531 C 1.742188 79.890625 1.46875 79.121094 1.230469 78.339844 C 0.992188 77.558594 0.792969 76.769531 0.636719 75.96875 C 0.476562 75.167969 0.355469 74.359375 0.277344 73.546875 C 0.195312 72.734375 0.15625 71.917969 0.15625 71.101562 L 0.15625 -0.0390625 L 48 -0.0390625 C 49.574219 -0.0390625 51.144531 0.0390625 52.707031 0.191406 C 54.273438 0.347656 55.828125 0.578125 57.371094 0.882812 C 58.914062 1.191406 60.4375 1.574219 61.945312 2.03125 C 63.449219 2.484375 64.929688 3.015625 66.382812 3.617188 C 67.835938 4.21875 69.257812 4.890625 70.644531 5.632812 C 72.03125 6.375 73.382812 7.183594 74.6875 8.058594 C 75.996094 8.929688 77.257812 9.867188 78.476562 10.867188 C 79.691406 11.863281 80.855469 12.917969 81.96875 14.03125 C 83.082031 15.144531 84.136719 16.308594 85.132812 17.523438 C 86.132812 18.742188 87.070312 20.003906 87.941406 21.3125 C 88.816406 22.617188 89.625 23.96875 90.367188 25.355469 C 91.109375 26.742188 91.78125 28.164062 92.382812 29.617188 C 92.984375 31.070312 93.515625 32.550781 93.96875 34.054688 C 94.425781 35.5625 94.808594 37.085938 95.117188 38.628906 C 95.421875 40.171875 95.652344 41.726562 95.808594 43.292969 C 95.960938 44.855469 96.039062 46.425781 96.039062 48 Z M 96.039062 48 "/><g clip-rule="nonzero" clip-path="url(#590cf70259)"><path style=" stroke:none;fill-rule:nonzero;fill:#673de5;fill-opacity:1;" d="M 55.375 33.601562 L 62.398438 33.601562 L 62.398438 53.1875 L 55.375 53.1875 Z M 55.375 33.601562 "/></g></g></svg>