<svg xmlns="http://www.w3.org/2000/svg" xmlns:xlink="http://www.w3.org/1999/xlink" width="200" zoomAndPan="magnify" viewBox="0 0 150 149.999998" height="200" preserveAspectRatio="xMidYMid meet" version="1.0"><defs><clipPath id="38acda0e1b"><path d="M 51 11.386719 L 98 11.386719 L 98 28 L 51 28 Z M 51 11.386719 " clip-rule="nonzero"/></clipPath><clipPath id="03850c60eb"><path d="M 4.207031 52 L 145.78125 52 L 145.78125 138.886719 L 4.207031 138.886719 Z M 4.207031 52 " clip-rule="nonzero"/></clipPath></defs><rect x="-15" width="180" fill="#ffffff" y="-15" height="179.999997" fill-opacity="1"/><rect x="-15" width="180" fill="#121212" y="-15" height="179.999997" fill-opacity="1"/><g clip-path="url(#38acda0e1b)"><path fill="#ffffff" d="M 83.273438 23.847656 L 97.984375 27.328125 L 51.226562 27.425781 L 66.34375 23.847656 L 68.761719 11.386719 L 80.855469 11.386719 Z M 83.273438 23.847656 " fill-opacity="1" fill-rule="evenodd"/></g><path fill="#c8f31d" d="M 74.898438 34.621094 L 116.476562 31.925781 L 33.40625 32.023438 Z M 51.132812 29.546875 L 97.890625 29.453125 L 121.414062 29.410156 L 103.835938 42.996094 L 103.835938 64.398438 L 75.183594 50.257812 L 45.792969 64.023438 L 45.601562 43.1875 L 28.574219 29.601562 L 51.144531 29.558594 Z M 99.738281 43.179688 L 75.175781 43.273438 L 75.078125 47.550781 L 99.875 59.257812 L 99.726562 43.179688 Z M 99.738281 43.179688 " fill-opacity="1" fill-rule="evenodd"/><g clip-path="url(#03850c60eb)"><path fill="#ffffff" d="M 75.257812 57.519531 L 75.058594 114.988281 L 102.6875 114.976562 L 118.535156 77.835938 Z M 106.574219 116.355469 C 129.871094 116.601562 145.890625 117.109375 145.890625 117.695312 C 145.890625 118.511719 114.152344 119.179688 75.003906 119.179688 C 35.859375 119.179688 4.117188 118.511719 4.117188 117.695312 C 4.117188 117.109375 20.210938 116.601562 43.59375 116.355469 L 26.167969 75.574219 L 75.28125 52.507812 L 123.929688 75.742188 L 106.574219 116.367188 Z M 74.25 135.621094 C 58.308594 135.621094 45.390625 136.292969 45.390625 137.109375 C 45.390625 137.925781 58.320312 138.59375 74.25 138.59375 C 90.195312 138.59375 103.113281 137.925781 103.113281 137.109375 C 103.113281 136.292969 90.183594 135.621094 74.25 135.621094 Z M 74.25 130.335938 C 54.761719 130.335938 38.957031 131.003906 38.957031 131.820312 C 38.957031 132.640625 54.761719 133.308594 74.25 133.308594 C 93.738281 133.308594 109.546875 132.640625 109.546875 131.820312 C 109.546875 131.003906 93.738281 130.335938 74.25 130.335938 Z M 74.25 126.058594 C 51.855469 126.058594 33.691406 126.726562 33.691406 127.542969 C 33.691406 128.363281 51.855469 129.03125 74.25 129.03125 C 96.648438 129.03125 114.8125 128.363281 114.8125 127.542969 C 114.8125 126.726562 96.648438 126.058594 74.25 126.058594 Z M 74.25 121.410156 C 48.574219 121.410156 27.738281 122.078125 27.738281 122.894531 C 27.738281 123.710938 48.5625 124.382812 74.25 124.382812 C 99.929688 124.382812 120.765625 123.710938 120.765625 122.894531 C 120.765625 122.078125 99.9375 121.410156 74.25 121.410156 Z M 74.25 121.410156 " fill-opacity="1" fill-rule="evenodd"/></g></svg>